<svg width="132" height="56" viewBox="0 0 132 56" fill="none" xmlns="http://www.w3.org/2000/svg">
<g clip-path="url(#clip0_11387_20322)">
<path d="M22.1297 30.235C20.0197 33.065 16.6597 34.655 12.6297 34.655C5.56969 34.655 0.679688 29.805 0.679688 22.705C0.679688 15.605 5.57969 10.705 12.6297 10.705C16.2797 10.705 19.4897 12.045 21.6997 14.545C21.8397 14.735 21.8897 14.885 21.8897 15.125C21.8897 15.655 21.5097 15.985 21.0297 15.985C20.7897 15.985 20.5497 15.885 20.3097 15.605C18.6297 13.585 15.8897 12.345 12.6297 12.345C6.62969 12.345 2.44969 16.525 2.44969 22.715C2.44969 28.905 6.62969 33.035 12.6297 33.035C16.0897 33.035 18.8697 31.735 20.7397 29.245C20.8797 29.055 21.1197 28.905 21.4097 28.905C21.9397 28.905 22.2697 29.285 22.2697 29.765C22.2697 29.955 22.2197 30.105 22.1297 30.245V30.235Z" fill="#F42534"/>
<path d="M38.2996 10.705C45.3596 10.705 50.2096 15.555 50.2096 22.705C50.2096 29.855 45.3596 34.655 38.2996 34.655C31.2396 34.655 26.3496 29.805 26.3496 22.705C26.3496 15.605 31.2496 10.705 38.2996 10.705ZM38.2996 33.025C44.2996 33.025 48.4296 28.845 48.4296 22.705C48.4296 16.565 44.2996 12.335 38.2996 12.335C32.2996 12.335 28.1196 16.515 28.1196 22.705C28.1196 28.895 32.2996 33.025 38.2996 33.025Z" fill="#F42534"/>
<path d="M77.3795 2.54501V33.175C77.3795 34.275 76.7995 34.955 75.7495 34.955C74.6995 34.955 74.0695 34.285 74.0695 33.175V30.915H73.9695C72.1495 33.655 68.9295 35.235 64.7995 35.235C57.8895 35.235 53.2295 30.435 53.2295 23.235C53.2295 16.035 57.8895 11.235 64.7995 11.235C68.9295 11.235 72.1395 12.815 73.9695 15.555H74.0695V2.54501C74.0695 1.39501 74.6895 0.765015 75.7495 0.765015C76.8095 0.765015 77.3795 1.38501 77.3795 2.54501ZM74.0695 23.235C74.0695 17.905 70.4695 14.205 65.3295 14.205C60.1895 14.205 56.5895 17.855 56.5895 23.235C56.5895 28.615 60.1395 32.255 65.3295 32.255C70.5195 32.255 74.0695 28.605 74.0695 23.235Z" fill="#F42534"/>
<path d="M104.309 24.385H85.9693C86.4993 29.085 89.9093 32.255 94.9493 32.255C98.0193 32.255 100.519 31.055 102.009 29.135C102.299 28.755 102.779 28.465 103.349 28.465C104.259 28.465 104.889 29.085 104.889 30.005C104.889 30.385 104.789 30.675 104.549 31.015C102.489 33.655 99.0293 35.235 94.9493 35.235C87.5093 35.235 82.5693 30.385 82.5693 23.235C82.5693 16.085 87.5093 11.235 94.6693 11.235C101.829 11.235 106.429 15.985 106.429 22.375C106.429 23.675 105.659 24.395 104.319 24.395L104.309 24.385ZM86.0693 21.505H103.299C102.629 17.135 99.3193 14.205 94.6593 14.205C89.9993 14.205 86.7393 17.135 86.0693 21.505Z" fill="#F42534"/>
<path d="M131.33 13.105C131.33 13.395 131.28 13.685 131.09 14.065L121.59 33.655C121.21 34.425 120.68 34.955 119.72 34.955C118.86 34.955 118.23 34.425 117.85 33.655L108.39 14.305C108.2 13.875 108.1 13.535 108.1 13.155C108.1 12.145 108.77 11.525 109.73 11.525C110.45 11.525 110.93 11.865 111.27 12.625L119.72 30.385H119.82L128.27 12.625C128.61 11.905 129.09 11.525 129.76 11.525C130.77 11.525 131.34 12.195 131.34 13.105H131.33Z" fill="#F42534"/>
</g>
<path d="M7.08612 41.5077V50.235H5.24094V41.5077H7.08612ZM24.9039 41.5077V50.235H23.3102L19.5133 44.7421H19.4494V50.235H17.6042V41.5077H19.2235L22.9906 46.9963H23.0673V41.5077H24.9039ZM35.0961 43.029V41.5077H42.2637V43.029H39.5918V50.235H37.7679V43.029H35.0961ZM52.4441 50.235V41.5077H58.3248V43.029H54.2892V45.1086H58.0222V46.6299H54.2892V48.7137H58.3418V50.235H52.4441ZM68.7917 50.235V41.5077H72.2349C72.894 41.5077 73.4565 41.6256 73.9224 41.8614C74.3912 42.0944 74.7477 42.4253 74.992 42.8543C75.2392 43.2804 75.3627 43.7819 75.3627 44.3586C75.3627 44.9381 75.2377 45.4367 74.9877 45.8543C74.7377 46.2691 74.3755 46.5873 73.9011 46.8088C73.4295 47.0304 72.8585 47.1412 72.188 47.1412H69.8826V45.6583H71.8897C72.242 45.6583 72.5346 45.61 72.7676 45.5134C73.0005 45.4168 73.1738 45.2719 73.2875 45.0787C73.4039 44.8856 73.4622 44.6455 73.4622 44.3586C73.4622 44.0688 73.4039 43.8245 73.2875 43.6256C73.1738 43.4267 72.9991 43.2762 72.7633 43.1739C72.5304 43.0688 72.2363 43.0162 71.8812 43.0162H70.6369V50.235H68.7917ZM73.5048 46.2634L75.6738 50.235H73.6369L71.5147 46.2634H73.5048ZM92.9664 41.5077V50.235H91.3727L87.5758 44.7421H87.5119V50.235H85.6667V41.5077H87.286L91.0531 46.9963H91.1298V41.5077H92.9664ZM104.995 50.235H103.018L106.031 41.5077H108.409L111.417 50.235H109.44L107.254 43.502H107.186L104.995 50.235ZM104.872 46.8046H109.542V48.2449H104.872V46.8046ZM121.468 50.235V41.5077H123.313V48.7137H127.054V50.235H121.468Z" fill="#37373B"/>
<defs>
<clipPath id="clip0_11387_20322">
<rect width="130.66" height="34.47" fill="white" transform="translate(0.669922 0.765015)"/>
</clipPath>
</defs>
</svg>
